PathFileType	4	(X/Y/Z)	Kaydara																																																																																																																									
DataRate	CameraRate	NumFrames	NumMarkers	Units	OrigDataRate	OrigDataStartFrame	OrigNumFrames																																																																																																																					
30	30	5	41	mm	30	59	230																																																																																																																					
Frame#	Time	PAIB_LFHD			PAIB_RFHD			PAIB_LBHD			PAIB_RBHD			PAIB_LFTShould			PAIB_RFTShould			PAIB_LRRShould			PAIB_RRRShould			PAIB_T10			PAIB_STRN			PAIB_TRUN			PAIB_LSHO			PAIB_LUPA			PAIB_LELB			PAIB_LFRM			PAIB_LWRA			PAIB_LWRB			PAIB_LFIN			PAIB_RSHO			PAIB_RUPA			PAIB_RELB			PAIB_RFRM			PAIB_RWRA			PAIB_RWRB			PAIB_RFIN			PAIB_LFWT			PAIB_RFWT			PAIB_LBWT			PAIB_RBWT			PAIB_LTHI			PAIB_LKNE			PAIB_LSHN			PAIB_LANK			PAIB_LHEE			PAIB_LTOE			PAIB_RTHI			PAIB_RKNE			PAIB_RSHN			PAIB_RANK			PAIB_RHEE			PAIB_RTOE		
		X1	Y1	Z1	X2	Y2	Z2	X3	Y3	Z3	X4	Y4	Z4	X5	Y5	Z5	X6	Y6	Z6	X7	Y7	Z7	X8	Y8	Z8	X9	Y9	Z9	X10	Y10	Z10	X11	Y11	Z11	X12	Y12	Z12	X13	Y13	Z13	X14	Y14	Z14	X15	Y15	Z15	X16	Y16	Z16	X17	Y17	Z17	X18	Y18	Z18	X19	Y19	Z19	X20	Y20	Z20	X21	Y21	Z21	X22	Y22	Z22	X23	Y23	Z23	X24	Y24	Z24	X25	Y25	Z25	X26	Y26	Z26	X27	Y27	Z27	X28	Y28	Z28	X29	Y29	Z29	X30	Y30	Z30	X31	Y31	Z31	X32	Y32	Z32	X33	Y33	Z33	X34	Y34	Z34	X35	Y35	Z35	X36	Y36	Z36	X37	Y37	Z37	X38	Y38	Z38	X39	Y39	Z39	X40	Y40	Z40	X41	Y41	Z41
																																																																																																																												
58	1.92	245.8819	1700.33722	-2001.34079	60.41127	1702.31995	-2014.81903	261.42422	1664.29092	-2126.23505	59.06791	1678.13828	-2128.29742	217.5407	1437.59735	-1992.02118	94.70675	1435.00397	-2000.77728	234.04627	1482.47421	-2145.26886	79.34575	1483.20694	-2142.7005	157.66373	1314.84619	-2206.10016	163.32766	1375.06866	-1949.40231	162.00829	1277.63229	-1915.08011	352.88898	1435.45547	-2069.50287	398.08804	1206.45523	-2049.5842	413.83987	1116.86378	-2075.96603	428.23666	1008.29681	-2019.69315	365.78438	908.86856	-1921.15051	404.40788	879.84116	-1982.7243	415.15667	853.2589	-1915.81253	-32.02246	1429.01627	-2061.23901	-91.6546	1249.36508	-2087.08252	-109.13954	1130.6398	-2083.06519	-123.50803	998.41682	-2037.1225	-63.97887	907.69974	-1928.24982	-129.86277	886.37215	-1975.84305	-122.37222	859.44458	-1905.8255	264.81472	967.75871	-1939.09943	28.80277	971.80138	-1944.94766	209.90728	1027.50565	-2153.37921	65.6779	1031.62109	-2153.67477	261.50879	748.72437	-2156.0144	298.45016	511.21101	-2070.20462	274.18598	311.84296	-2070.17853	280.85821	128.18257	-2160.77179	227.71166	119.29345	-2210.56	263.83068	75.20078	-1987.3317	4.93174	730.53581	-2156.30173	-0.02564	487.72854	-2082.7478	57.25472	303.25384	-2073.31909	27.51682	107.0514	-2159.85748	89.67195	112.87825	-2214.4046	43.04948	77.48964	-1991.70685
59	1.953	245.81827	1700.33493	-2001.30188	60.36308	1702.25204	-2014.70825	261.27932	1664.31458	-2126.12366	58.96698	1678.20389	-2128.26614	218.43477	1437.91748	-1992.72232	94.75908	1435.03555	-2000.79697	234.04484	1482.48016	-2145.31738	79.30233	1483.18024	-2142.83279	157.66683	1314.86435	-2206.15143	163.27991	1375.14069	-1949.45755	161.94796	1277.66655	-1915.05615	352.88242	1435.45593	-2069.63562	398.08926	1206.56387	-2049.3454	413.79513	1116.9146	-2075.83771	428.13366	1008.37646	-2019.52591	365.61138	908.99605	-1921.06018	404.23275	879.90028	-1982.46582	414.87644	853.34946	-1915.5545	-32.04872	1429.00192	-2061.34399	-91.71028	1249.33998	-2087.07825	-109.16007	1130.61913	-2082.99911	-123.57467	998.42308	-2036.99982	-63.9927	907.77153	-1928.13248	-129.87681	886.46385	-1975.70618	-122.39505	859.48792	-1905.64575	264.79485	967.79686	-1939.17557	28.85028	971.98784	-1945.0145	209.95962	1027.48589	-2153.43399	65.74134	1031.58882	-2153.75916	261.52889	748.73497	-2155.9996	298.49739	511.26511	-2070.18448	274.22758	311.82358	-2070.21439	280.8428	128.21384	-2160.77728	227.73161	119.33029	-2210.55161	263.79934	75.18088	-1987.29401	4.87286	730.495	-2156.22635	0.00068	487.73399	-2082.61703	57.25957	303.28184	-2073.3075	27.33858	107.00184	-2159.89258	89.64466	112.92388	-2214.37103	43.0571	77.48384	-1991.68777
60	1.987	245.73244	1700.43564	-2001.35452	60.15616	1702.27676	-2014.75021	261.25547	1664.54315	-2126.39771	58.81678	1678.14789	-2128.2547	218.12395	1438.06229	-1992.69806	94.60784	1435.06454	-2000.87616	233.96326	1482.57248	-2145.35126	79.23608	1483.16452	-2142.82211	157.67091	1314.87198	-2206.15356	163.10038	1375.08652	-1949.39911	161.9776	1277.71706	-1915.11139	352.78919	1435.50888	-2069.56482	397.99904	1206.64322	-2049.17267	413.73051	1117.01172	-2075.75256	428.05332	1008.45078	-2019.36691	365.43022	909.077	-1920.94894	404.14959	880.05371	-1982.31522	414.79172	853.50548	-1915.43045	-32.10031	1428.99811	-2061.40182	-91.71098	1249.2955	-2087.02713	-108.91068	1130.41969	-2082.62955	-123.4937	998.3802	-2036.87302	-63.86103	907.81677	-1928.00415	-129.75729	886.44882	-1975.52963	-122.27388	859.54086	-1905.44388	264.89408	967.85164	-1939.1983	28.89746	971.99547	-1944.97742	209.90255	1027.47063	-2153.47061	65.6913	1031.57219	-2153.75336	261.48893	748.72635	-2155.96375	298.45768	511.24565	-2070.20554	274.21061	311.90853	-2070.11902	280.83168	128.25917	-2160.70953	227.70164	119.32707	-2210.5687	263.82236	75.19034	-1987.31506	4.7769	730.4792	-2156.23352	-0.00935	487.72022	-2082.60818	57.2831	303.24947	-2073.26935	27.57306	106.95777	-2159.68018	89.64642	112.92485	-2214.37317	43.06253	77.48413	-1991.68839
61	2.02	245.39316	1700.49866	-2001.2912	59.94077	1702.31293	-2014.86572	261.06659	1665.32333	-2128.26859	58.61825	1678.08136	-2128.30048	218.19323	1437.97058	-1992.76642	94.54058	1434.9675	-2000.76096	233.85782	1482.54105	-2145.19012	79.14071	1483.18024	-2142.79221	157.6523	1314.86496	-2206.07346	163.10171	1375.14359	-1949.4516	161.82467	1277.67128	-1915.09628	352.7787	1435.65582	-2069.54834	397.87487	1206.52145	-2049.22165	413.73932	1117.05589	-2075.66193	428.04249	1008.48862	-2019.26575	365.56187	909.22813	-1920.7901	404.13734	880.11658	-1982.18658	414.80148	853.57391	-1915.2652	-32.16805	1428.9035	-2061.39038	-91.71749	1249.20921	-2086.99265	-109.06065	1130.45616	-2082.84348	-123.38051	998.30429	-2036.75873	-63.78234	907.73666	-1927.87613	-129.56807	886.31981	-1975.28183	-122.08158	859.51035	-1905.25192	264.88804	967.82303	-1939.21448	28.87894	971.86417	-1945.0058	209.82038	1027.47375	-2153.48053	65.58945	1031.5802	-2153.69339	261.39883	748.72032	-2156.01761	298.45917	511.26492	-2070.24704	274.21497	311.8837	-2070.16968	280.78787	128.15926	-2160.77103	227.70748	119.32766	-2210.57343	263.83585	75.1946	-1987.3262	4.77077	730.46066	-2156.19507	-0.019	487.73563	-2082.63702	57.28028	303.25321	-2073.37692	27.32549	106.99677	-2159.81613	89.65923	112.95374	-2214.41772	43.0701	77.48147	-1991.689
62	2.053	245.09077	1700.59189	-2001.30371	59.72084	1702.27219	-2014.94858	261.11954	1664.84024	-2126.82175	58.40926	1677.96158	-2128.36502	217.90236	1437.88757	-1992.43073	94.34326	1434.79462	-2000.86884	233.73989	1482.5502	-2145.12009	79.02382	1483.0986	-2142.71729	157.57121	1314.832	-2205.9993	163.00867	1375.05493	-1949.33823	161.82297	1277.63634	-1915.05844	352.35683	1435.45105	-2069.06921	397.9612	1206.78436	-2048.92471	413.74535	1117.06909	-2075.58136	428.11775	1008.52806	-2019.18472	365.64064	909.15436	-1920.70862	404.27273	880.0843	-1982.09122	414.91081	853.5656	-1915.16464	-32.29562	1428.75412	-2061.34445	-91.7173	1248.98926	-2086.95541	-108.98025	1130.24475	-2082.75803	-123.2302	998.06244	-2036.65695	-63.40425	907.60696	-1927.69821	-129.33431	886.20934	-1975.21866	-121.80911	859.31641	-1905.09628	264.89086	967.85767	-1939.25888	28.88965	971.87813	-1944.94232	209.73059	1027.52548	-2153.46191	65.50006	1031.60034	-2153.67188	261.33688	748.76053	-2156.14456	298.4115	511.27048	-2070.28351	274.17973	311.9277	-2070.1387	280.77084	128.17565	-2160.82245	227.67466	119.32289	-2210.5603	263.82509	75.1801	-1987.31781	4.77734	730.50926	-2156.21826	-0.04604	487.72812	-2082.63199	57.27182	303.3004	-2073.27667	27.4662	106.90487	-2159.72214	89.64171	112.94405	-2214.39713	43.04651	77.46944	-1991.68762
